<?xml version="1.0" standalone="no"?>
<!DOCTYPE svg PUBLIC "-//W3C//DTD SVG 20010904//EN"
 "http://www.w3.org/TR/2001/REC-SVG-20010904/DTD/svg10.dtd">
<svg version="1.0" xmlns="http://www.w3.org/2000/svg"
 width="896.000000pt" height="178.000000pt" viewBox="0 0 896.000000 178.000000"
 preserveAspectRatio="xMidYMid meet">

<g transform="translate(0.000000,178.000000) scale(0.100000,-0.100000)"
fill="#000000" stroke="none">
<path d="M0 890 l0 -890 4480 0 4480 0 0 890 0 890 -4480 0 -4480 0 0 -890z
m800 539 l0 -182 -46 7 c-154 21 -289 155 -310 309 l-7 47 182 0 181 0 0 -181z
m220 36 l145 -145 -148 0 -147 0 0 145 c0 80 1 145 3 145 1 0 67 -65 147 -145z
m1776 -139 c35 -18 79 -64 88 -94 5 -15 1 -24 -14 -32 -25 -13 -50 -7 -50 13
0 8 -12 27 -27 43 -24 26 -33 29 -92 29 -51 0 -72 -5 -92 -20 -54 -40 -77
-120 -65 -219 14 -105 105 -166 201 -134 36 12 52 29 90 93 7 12 17 15 37 10
25 -6 26 -9 16 -38 -15 -44 -55 -95 -81 -103 -12 -4 -25 -11 -28 -16 -12 -18
-141 -11 -184 10 -79 39 -118 115 -118 232 0 129 49 198 173 244 25 9 113 -2
146 -18z m234 -66 c0 -85 7 -95 46 -65 27 20 114 19 140 -3 39 -31 44 -56 44
-201 l0 -141 -30 0 -30 0 0 135 c0 122 -2 137 -20 155 -38 38 -107 20 -134
-36 -12 -26 -16 -63 -16 -144 l0 -110 -25 0 -25 0 0 245 0 245 25 0 c25 0 25
-1 25 -80z m1855 45 c0 -25 -4 -30 -27 -33 -26 -3 -28 -1 -28 33 0 34 2 36 28
33 23 -3 27 -8 27 -33z m-1289 -120 c37 -28 42 -52 46 -233 3 -99 2 -102 -19
-102 -12 0 -27 9 -33 21 -11 20 -11 20 -45 0 -32 -19 -71 -26 -127 -22 -37 2
-88 55 -88 92 0 63 47 102 140 114 85 12 100 20 100 55 0 35 -26 50 -89 50
-39 0 -81 -28 -81 -55 0 -11 -6 -12 -29 -4 -30 11 -30 11 -14 44 21 44 64 64
142 64 54 1 70 -3 97 -24z m184 5 c0 -25 8 -25 40 0 17 14 41 20 76 20 44 0
57 -5 83 -29 l31 -29 0 -152 0 -151 -27 3 -28 3 -5 135 c-3 74 -8 140 -12 146
-21 32 -118 22 -133 -14 -4 -9 -10 -73 -14 -142 l-6 -125 -27 -3 -28 -3 0 180
0 181 25 0 c18 0 25 -5 25 -20z m526 3 c25 -16 27 -16 36 0 5 9 18 17 29 17
20 0 20 -5 17 -213 -3 -235 -3 -234 -75 -271 -88 -44 -213 5 -213 85 0 19 41
8 62 -16 26 -31 78 -41 119 -25 36 15 49 37 49 84 l0 36 -35 -20 c-43 -24 -76
-25 -118 -4 -40 21 -54 36 -68 71 -26 65 -29 97 -12 156 22 78 67 117 136 117
28 0 58 -7 73 -17z m228 5 c6 -7 25 -34 41 -60 17 -27 32 -48 35 -48 3 0 23
27 45 60 35 53 44 60 73 60 34 0 40 -10 19 -32 -19 -19 -97 -133 -97 -141 0
-4 27 -45 60 -91 33 -47 60 -87 60 -90 0 -3 -15 -6 -32 -6 -27 0 -38 8 -60 39
-16 22 -28 42 -28 46 0 3 -9 16 -21 28 -19 20 -21 21 -32 5 -79 -115 -82 -118
-114 -118 -18 0 -33 2 -33 5 0 3 27 43 60 89 33 47 60 88 60 91 0 4 -25 43
-55 87 -30 44 -55 81 -55 84 0 10 63 3 74 -8z m354 -170 l2 -178 -30 0 -30 0
0 181 0 180 28 -3 27 -3 3 -177z m142 161 l0 -21 34 21 c42 27 122 28 152 3
36 -30 44 -67 44 -207 l0 -135 -30 0 -30 0 0 133 c0 72 -4 137 -8 144 -12 19
-63 34 -93 28 -49 -11 -62 -46 -67 -183 l-5 -123 -26 3 -26 3 -3 165 c-1 90 0
170 2 177 3 7 17 13 31 13 19 0 25 -5 25 -21z m510 12 c0 -15 38 -20 44 -5 3
8 17 14 31 14 l25 0 0 -192 c0 -221 -8 -252 -70 -287 -74 -42 -185 -19 -215
45 -19 41 -19 44 5 44 12 0 32 -12 46 -27 22 -23 34 -28 76 -28 42 0 53 4 74
28 15 18 24 41 24 63 l0 34 -40 -20 c-21 -11 -50 -20 -63 -20 -40 0 -87 30
-114 73 -22 35 -26 54 -27 112 -1 80 19 122 70 155 30 19 134 28 134 11z
m-4740 -166 l0 -145 -180 0 -180 0 0 145 0 145 180 0 180 0 0 -145z m198 113
c89 -42 162 -157 162 -258 0 -136 -109 -262 -247 -285 l-43 -7 0 292 0 292 43
-7 c23 -4 61 -16 85 -27z"/>
<path d="M3489 1010 c-66 -11 -89 -29 -89 -66 0 -43 43 -62 100 -45 47 14 70
43 70 88 0 36 -1 36 -81 23z"/>
<path d="M4179 1129 c-25 -27 -29 -39 -29 -91 0 -44 6 -70 21 -94 19 -31 25
-34 67 -34 59 0 68 6 87 59 19 55 19 81 -1 129 -26 68 -97 83 -145 31z"/>
<path d="M5443 1148 c-32 -16 -46 -59 -41 -132 5 -84 23 -106 87 -106 70 0 86
24 86 123 0 74 -2 80 -28 103 -30 25 -67 30 -104 12z"/>
</g>
</svg>
